<?xml version="1.0" encoding="utf-8"?>
<!-- Generator: Adobe Illustrator 23.0.1, SVG Export Plug-In . SVG Version: 6.00 Build 0)  -->
<svg version="1.1" id="Capa_1" xmlns="http://www.w3.org/2000/svg" xmlns:xlink="http://www.w3.org/1999/xlink" x="0px" y="0px"
	 viewBox="0 0 283.46 283.46" style="enable-background:new 0 0 283.46 283.46;" xml:space="preserve" width="256px" height="256px">
<style type="text/css">
	.st0{fill:#EA9B60;}
	.st1{fill:none;stroke:#32373B;stroke-width:1.6689;stroke-linecap:round;stroke-linejoin:bevel;stroke-miterlimit:10;}
	.st2{fill:#353537;}
</style>
<g>
	<path class="st0" d="M239.61,124.04c-0.33-6.65-0.66-13.31-0.99-19.96c-0.85-17.1-10.97-25.01-27.74-21.25
		c-8.33,1.87-16.48,4.58-24.74,6.76c-16.64,4.39-31.71-6.35-33.48-23.59c-1.02-9.92,1.64-18.67,8.37-25.88
		c25.09-26.83,60.44-28.14,88.42-6.87c11.52,8.76,16.76,22.05,21.47,35.3c12.52,35.19,8.84,69.89-3.41,104.26
		c-5.24,14.69-11.53,28.88-21.59,41.05c-1.82,2.2-3.54,4.74-5.88,6.18c-8.45,5.18-7.84,13.05-6.69,21.05c0.6,4.22,2,8.32,2.78,12.52
		c0.95,5.15-1.1,8.9-5.95,10.45c-4.85,1.56-9.85,2.2-15,1.27c-4.38-0.8-6.54-3.4-7.24-7.63c-0.86-5.2-0.62-10.44-0.89-15.66
		c-0.15-2.88-0.75-5.82-4.5-5.23c-3.64,0.57-2.8,3.48-2.37,6.05c0.67,4.06,1.73,8.05,1.62,12.23c-0.12,4.69-2.16,8.17-6.67,9.31
		c-14.21,3.61-22.33-0.81-22.23-14.89c0.02-2.62,0.87-5.44-1.01-7.83c-2.56-3.25-19.95-3.06-22.43,0.27
		c-2.02,2.71-1.31,5.81-0.87,8.75c1.79,12.12-0.15,14.48-12.27,14.56c-12.57,0.08-16.13-3.32-16.58-15.89
		c-0.09-2.38-0.08-4.76-0.03-7.14c0.03-1.67-0.39-2.78-2.35-2.71c-1.92,0.07-1.85,1.41-1.75,2.69c0.23,2.84,0.51,5.68,0.83,8.52
		c0.99,8.92-2.76,14.03-10.79,14.66c-10.65,0.83-15.53-3.11-15.74-12.8c-0.06-2.85,0.09-5.71,0.12-8.57
		c0.11-9.36-2.62-13.56-11.72-15.81c-12.5-3.1-23.77-8.78-34.63-15.37c-13.88-8.42-25.95-18.77-33.93-33.27
		c-2.07-3.77-3.71-7.71-4.83-11.86c-0.35-1.28-1.55-2.93,0.32-3.72c1.46-0.62,2.04,1.16,2.78,2.07
		c8.41,10.48,18.17,19.49,29.51,26.71c6.59,4.2,13.55,7.51,21.35,8.95c12.13,2.24,23.29-2.73,29.35-13.57
		c4.02-7.19,7.6-14.65,11.75-21.76c16.88-28.88,44.46-38.01,75.4-25.14c11.59,4.82,21.82,11.57,30.26,20.96
		c2.97,3.3,5.93,6.65,9.59,9.22c7.18,5.04,11.02,4.29,15.53-3.17c4.24-7.01,6.76-14.71,7.68-22.81
		C239.21,138.34,239.79,131.21,239.61,124.04z"/>
	<path class="st2" d="M184.75,56.25c-2.27-0.55-3.87-1.84-3.63-4.23c0.23-2.3,1.82-3.71,4.22-3.48c2.16,0.2,3.48,1.6,3.35,3.83
		C188.55,54.72,187.05,55.97,184.75,56.25z"/>
</g>
</svg>
