<?xml version="1.0" encoding="utf-8"?>
<svg xmlns="http://www.w3.org/2000/svg" xmlns:xlink="http://www.w3.org/1999/xlink" version="1.1" id="Capa_1" x="0px" y="0px" viewBox="-25 -30 341 341" style="enable-background:new 0 0 283.46 283.46;" xml:space="preserve" width="512px" height="512px">
<style type="text/css">
	.st0{fill:#EA9B60;}
	.st1{fill:none;stroke:#32373B;stroke-width:1.6689;stroke-linecap:round;stroke-linejoin:bevel;stroke-miterlimit:10;}
	.st2{fill:#353537;}
</style>
<g>
	<path class="st0" d="M239.61,124.04c-0.33-6.65-0.66-13.31-0.99-19.96c-0.85-17.1-10.97-25.01-27.74-21.25   c-8.33,1.87-16.48,4.58-24.74,6.76c-16.64,4.39-31.71-6.35-33.48-23.59c-1.02-9.92,1.64-18.67,8.37-25.88   c25.09-26.83,60.44-28.14,88.42-6.87c11.52,8.76,16.76,22.05,21.47,35.3c12.52,35.19,8.84,69.89-3.41,104.26   c-5.24,14.69-11.53,28.88-21.59,41.05c-1.82,2.2-3.54,4.74-5.88,6.18c-8.45,5.18-7.84,13.05-6.69,21.05c0.6,4.22,2,8.32,2.78,12.52   c0.95,5.15-1.1,8.9-5.95,10.45c-4.85,1.56-9.85,2.2-15,1.27c-4.38-0.8-6.54-3.4-7.24-7.63c-0.86-5.2-0.62-10.44-0.89-15.66   c-0.15-2.88-0.75-5.82-4.5-5.23c-3.64,0.57-2.8,3.48-2.37,6.05c0.67,4.06,1.73,8.05,1.62,12.23c-0.12,4.69-2.16,8.17-6.67,9.31   c-14.21,3.61-22.33-0.81-22.23-14.89c0.02-2.62,0.87-5.44-1.01-7.83c-2.56-3.25-19.95-3.06-22.43,0.27   c-2.02,2.71-1.31,5.81-0.87,8.75c1.79,12.12-0.15,14.48-12.27,14.56c-12.57,0.08-16.13-3.32-16.58-15.89   c-0.09-2.38-0.08-4.76-0.03-7.14c0.03-1.67-0.39-2.78-2.35-2.71c-1.92,0.07-1.85,1.41-1.75,2.69c0.23,2.84,0.51,5.68,0.83,8.52   c0.99,8.92-2.76,14.03-10.79,14.66c-10.65,0.83-15.53-3.11-15.74-12.8c-0.06-2.85,0.09-5.71,0.12-8.57   c0.11-9.36-2.62-13.56-11.72-15.81c-12.5-3.1-23.77-8.78-34.63-15.37c-13.88-8.42-25.95-18.77-33.93-33.27   c-2.07-3.77-3.71-7.71-4.83-11.86c-0.35-1.28-1.55-2.93,0.32-3.72c1.46-0.62,2.04,1.16,2.78,2.07   c8.41,10.48,18.17,19.49,29.51,26.71c6.59,4.2,13.55,7.51,21.35,8.95c12.13,2.24,23.29-2.73,29.35-13.57   c4.02-7.19,7.6-14.65,11.75-21.76c16.88-28.88,44.46-38.01,75.4-25.14c11.59,4.82,21.82,11.57,30.26,20.96   c2.97,3.3,5.93,6.65,9.59,9.22c7.18,5.04,11.02,4.29,15.53-3.17c4.24-7.01,6.76-14.71,7.68-22.81   C239.21,138.34,239.79,131.21,239.61,124.04z"/>
	<!--
	<path class="st1" d="M231.83,120.18c-0.3-6.13-0.61-12.25-0.91-18.38c-0.78-15.75-10.1-23.03-25.55-19.56
		c-7.67,1.72-15.17,4.22-22.79,6.22c-15.32,4.04-29.2-5.84-30.83-21.72c-0.94-9.14,1.51-17.19,7.71-23.83
		c23.1-24.71,55.66-25.91,81.42-6.32c10.61,8.06,15.43,20.3,19.77,32.51c11.53,32.41,8.14,64.36-3.14,96
		c-4.82,13.53-10.62,26.6-19.89,37.8c-1.67,2.02-3.26,4.37-5.42,5.69c-7.78,4.77-7.22,12.02-6.16,19.38
		c0.56,3.89,1.84,7.66,2.56,11.53c0.88,4.74-1.02,8.19-5.47,9.62c-4.47,1.43-9.07,2.03-13.81,1.17c-4.04-0.73-6.02-3.13-6.67-7.03
		c-0.79-4.79-0.57-9.62-0.82-14.42c-0.14-2.65-0.69-5.36-4.14-4.82c-3.35,0.52-2.58,3.2-2.19,5.57c0.61,3.73,1.59,7.41,1.49,11.26
		c-0.11,4.32-1.99,7.52-6.14,8.57c-13.09,3.32-20.56-0.74-20.47-13.71c0.02-2.41,0.81-5-0.93-7.21c-2.36-2.99-18.37-2.82-20.66,0.25
		c-1.86,2.49-1.2,5.35-0.8,8.05c1.65,11.16-0.14,13.33-11.3,13.4c-11.57,0.07-14.85-3.06-15.27-14.64
		c-0.08-2.19-0.07-4.39-0.03-6.58c0.03-1.54-0.36-2.56-2.17-2.49c-1.77,0.06-1.71,1.29-1.61,2.47c0.21,2.62,0.47,5.23,0.76,7.85
		c0.91,8.21-2.54,12.92-9.94,13.5c-9.81,0.76-14.3-2.87-14.5-11.79c-0.06-2.63,0.08-5.26,0.11-7.89c0.1-8.62-2.41-12.48-10.79-14.56
		c-11.51-2.85-21.88-8.09-31.89-14.15c-12.78-7.75-23.89-17.29-31.24-30.63c-1.91-3.47-3.42-7.1-4.45-10.92
		c-0.32-1.18-1.42-2.7,0.3-3.43c1.34-0.57,1.88,1.06,2.56,1.91c7.75,9.65,16.73,17.94,27.17,24.6c6.07,3.87,12.47,6.91,19.66,8.24
		c11.17,2.06,21.44-2.51,27.03-12.5c3.71-6.62,6.99-13.49,10.82-20.04c15.54-26.59,40.94-35,69.43-23.15
		c10.67,4.44,20.09,10.66,27.86,19.3c2.73,3.04,5.46,6.12,8.83,8.49c6.61,4.64,10.15,3.95,14.3-2.92c3.9-6.46,6.22-13.55,7.07-21.01
		C231.47,133.34,232,126.77,231.83,120.18z"/> -->
	<path class="st2" d="M184.75,56.25c-2.27-0.55-3.87-1.84-3.63-4.23c0.23-2.3,1.82-3.71,4.22-3.48c2.16,0.2,3.48,1.6,3.35,3.83   C188.55,54.72,187.05,55.97,184.75,56.25z"/>
</g>
</svg>
