<?xml version="1.0" ?><svg id="Layer_1" style="enable-background:new 0 0 30 30;" version="1.1" viewBox="0 0 30 30" xml:space="preserve" xmlns="http://www.w3.org/2000/svg" xmlns:xlink="http://www.w3.org/1999/xlink"><style type="text/css">
	.st0{fill:#6C91E8;}
	.st1{fill:#82BE00;}
	.st2{fill:#FF5A4E;}
	.st3{fill:#2CC0FE;}
	.st4{opacity:0.33;fill:#B5E7FE;}
	.st5{fill:#FFC83C;}
	.st6{fill:#00D7F0;}
</style><g><path class="st0" d="M14.955,13.553c-1.252,0-2.27,1.019-2.27,2.27c0,0.244,0.045,0.482,0.12,0.71   c-0.106,0.015-0.211,0.018-0.318,0.043c-0.325-0.331-0.708-0.605-1.119-0.8c-0.088-0.042-0.183-0.056-0.273-0.09   c0.074-2.071,1.771-3.736,3.86-3.736c2.014,0,3.639,1.511,3.837,3.483c-0.347,0.09-0.691,0.221-1.023,0.404   c-0.132,0.073-0.257,0.152-0.362,0.228c-0.079,0.05-0.145,0.116-0.22,0.172c0.025-0.135,0.04-0.273,0.04-0.412   C17.226,14.571,16.207,13.553,14.955,13.553z"/><path class="st1" d="M14.944,8.871c-4.099,0-6.789,3.093-6.789,7.192c0,0.056,0.248,0.192-0.609,0.153   c-0.105,0.061-0.232,0.574-0.316,0.635c-0.381,0.243-0.686,0.106-0.937,0.463c-0.104-0.018-0.216-0.014-0.322-0.024   c-0.056-0.409-0.094-0.824-0.094-1.239c0-5.017,4.082-9.099,9.099-9.099s9.098,4.082,9.098,9.099c0,0.212-0.021,0.419-0.035,0.627   c-0.373-0.027-0.75-0.016-1.134,0.076c-0.155-0.159-0.783-0.233-0.96-0.366c0.003-0.09-0.154-0.077-0.154-0.168   C21.79,12.121,19.043,8.871,14.944,8.871z"/><path class="st2" d="M1.033,16.219c0-7.79,6.338-14.484,14.127-14.484c7.79,0,14.127,6.694,14.127,14.484   c0,1.674-0.303,3.301-0.872,4.853c-0.104-0.064-0.208-0.126-0.318-0.18c-0.104-0.049-0.208-0.095-0.315-0.133   c-0.586-0.394-1.05-1.462-1.302-1.971c0.207-0.904,0.37-1.762,0.37-2.703c0-6.841-4.849-12.272-11.689-12.272   c-6.841,0-11.972,5.766-11.972,12.607c0,0.915-0.042,1.216,0.154,2.098c0.004,0.016,0.236,0.232,0.241,0.247   c-0.202,0.307-0.723,1.676-0.858,2.067c-0.12,0.349-0.356-0.089-0.357,0.31c-0.133,0.035-0.261,0.083-0.387,0.134   C1.362,19.662,1.033,17.966,1.033,16.219z"/><path class="st3" d="M13.98,17.091c0,0-0.58-0.609-2.053,0c0,0-2.703-2.972-5.47,0.473c0,0-3.904-0.002-3.927,3.647   c0,0-4.936,2.797,0.928,5.045c0,0,1.772,3.282,4.628,0.657c0,0,3.35,2.689,5.137-0.132c0,0,2.637,3.239,4.483,0.413   c0,0,3.257,3.329,5.667-0.328c0,0,6.272,3.127,5.913-4.174c0,0-0.814-2.253-2.197-2.112c0,0-1.582-4.999-5.018-3.734   c0,0-2.818-2.467-5.349,0.622C16.721,17.468,14.464,16.842,13.98,17.091z"/><path class="st4" d="M17.438,18.61c0,0,2.439-2.849,4.636,0c0,0,3.409-1.264,4.218,1.89c0.05,0.196,0,0.804,0,0.804   s1.507-0.031,2.363,1.052c0,0,0.07,4.97-4.793,4.568c0,0,1.242-1.104-0.259,0.227l0.586-0.03c0,0,3.813,0.525,5.543-2.785   c0,0,0.615-2.734-2.536-3.971c0,0-1.581-5.024-4.814-3.298c0,0-2.844-3.084-5.507,0.402c0,0-1.335,0.582,0.411,1.142"/><path class="st4" d="M12.708,19.132c0,0-2.494-3.387-4.691-0.423c0,0-3.354-0.892-4.162,2.389c-0.05,0.204,0,0.837,0,0.837   s-1.705-0.176-2.109,1.141c-0.402,1.314-0.064,2.718,4.815,2.918C7,26.012,9.146,26.432,7.015,27.526c0,0-0.272-0.228-0.368-0.187   c-1.431,0.613-3.132-0.601-5.468-2.612c0,0-0.826-2.35,1.444-3.41c0,0-0.689-3.609,4.52-4.097c0,0,1.135-2.499,7.8,0.401   c0,0-1.02,0.432-2.084,1.51"/><path class="st4" d="M26.48,19.593c0,1.564-2.576,2.832-5.753,2.832s-5.753-1.268-5.753-2.832s1.852-3.652,5.025-3.501   C22.716,16.221,26.48,18.029,26.48,19.593z"/><path class="st4" d="M12.861,19.434c-1.005,0.979-2.077,2.812-4.639,2.812s-4.639-1.259-4.639-2.812   c0-0.936,1.392-1.408,2.853-2.08c0.964-0.444,1.812-1.291,2.831-1.291C11.829,16.063,14.135,18.192,12.861,19.434z"/><path class="st5" d="M15.161,6.431c-5.276,0-9.569,4.292-9.569,9.569c0,0.398,0.041,0.794,0.09,1.187   c-0.386,0.052-0.78,0.188-1.218,0.426c-0.16,0.086-0.737,0.632-0.88,0.75c-0.109-0.634-0.148-1.906-0.148-2.555   c0-6.246,5.479-11.666,11.725-11.666c6.246,0,11.328,5.613,11.328,11.859c0,0.598-0.063,1.19-0.155,1.775   c-0.176-0.189-0.364-0.364-0.577-0.511c-0.447-0.309-0.99-0.394-1.297-0.49c0.02-0.25,0.077-0.362,0.077-0.617   C24.536,10.881,20.436,6.431,15.161,6.431z"/><path class="st6" d="M19.588,15.453c-0.259-2.489-2.207-4.201-4.615-4.201c-2.454,0-4.447,1.835-4.626,4.386   c-0.575-0.087-1.166-0.033-1.745,0.169c0.098-3.637,2.916-6.566,6.374-6.566c3.45,0,6.263,2.916,6.372,6.543   C20.791,15.526,20.193,15.414,19.588,15.453z"/><path d="M28.994,21.54c-0.138-0.172-0.278-0.321-0.421-0.46c0.649-1.676,0.988-3.441,0.988-5.257   c0-8.044-6.545-14.588-14.589-14.588c-8.044,0-14.588,6.544-14.588,14.588c0,1.847,0.352,3.639,1.022,5.34   c-0.188,0.145-0.364,0.304-0.508,0.49c-0.952,1.224-0.897,2.902,0.13,3.902c0.496,0.484,1.174,0.749,1.894,0.749   c0.006,0,0.012,0,0.018,0c0.43,0.75,1.07,1.31,1.785,1.555c0.614,0.212,1.163,0.271,1.675,0.184   c0.593-0.102,1.115-0.341,1.585-0.725c0.683,0.637,1.662,1.011,2.638,1.011c0.138,0,0.276-0.008,0.413-0.023   c0.772-0.086,1.509-0.402,2.13-0.915c0.006-0.005,0.008-0.012,0.013-0.017c0.381,0.412,0.827,0.73,1.315,0.898   c0.641,0.221,1.212,0.283,1.743,0.192c0.623-0.107,1.169-0.359,1.664-0.765c0.711,0.671,1.737,1.064,2.76,1.064   c0.144,0,0.287-0.008,0.429-0.023c0.946-0.105,1.837-0.544,2.538-1.243c1.403,0.666,3.137,0.536,4.321-0.35   c0.907-0.678,1.531-1.639,1.71-2.637C29.861,23.401,29.617,22.317,28.994,21.54z M1.174,15.823c0-7.608,6.19-13.798,13.798-13.798   c7.609,0,13.798,6.19,13.798,13.798c0,1.635-0.296,3.224-0.852,4.74c-0.101-0.063-0.203-0.123-0.311-0.176   c-0.101-0.048-0.203-0.093-0.308-0.13c-0.094-0.658-0.276-1.225-0.523-1.722c0.202-0.882,0.312-1.793,0.312-2.711   c0-6.682-5.436-12.118-12.118-12.118c-6.682,0-12.118,5.436-12.118,12.118c0,0.894,0.097,1.783,0.289,2.644   c0.004,0.016,0.014,0.027,0.019,0.042c-0.197,0.3-0.372,0.631-0.504,1.013c-0.118,0.341-0.179,0.718-0.18,1.108   c-0.13,0.034-0.255,0.081-0.378,0.131C1.495,19.186,1.174,17.53,1.174,15.823z M15.08,16.993c-0.448-0.265-0.917-0.421-1.4-0.477   c-0.115-0.214-0.189-0.447-0.189-0.693c0-0.817,0.664-1.481,1.481-1.481c0.817,0,1.48,0.664,1.48,1.481   c0,0.385-0.147,0.75-0.415,1.028c-0.029,0.03-0.047,0.066-0.065,0.102c-0.12-0.007-0.233-0.027-0.361-0.028   C15.436,16.928,15.259,16.955,15.08,16.993z M14.972,13.553c-1.252,0-2.27,1.019-2.27,2.27c0,0.244,0.045,0.482,0.12,0.71   c-0.106,0.015-0.211,0.018-0.318,0.043c-0.325-0.331-0.708-0.605-1.119-0.8c-0.088-0.042-0.183-0.056-0.273-0.09   c0.074-2.071,1.771-3.736,3.86-3.736c2.014,0,3.639,1.511,3.837,3.483c-0.347,0.09-0.691,0.221-1.023,0.404   c-0.132,0.073-0.257,0.152-0.362,0.228c-0.079,0.05-0.145,0.116-0.22,0.172c0.025-0.135,0.04-0.273,0.04-0.412   C17.243,14.571,16.224,13.553,14.972,13.553z M19.585,15.306c-0.259-2.35-2.204-4.146-4.613-4.146c-2.454,0-4.45,1.912-4.629,4.321   c-0.575-0.082-1.166-0.031-1.745,0.16c0.098-3.435,2.916-6.2,6.374-6.2c3.45,0,6.263,2.754,6.372,6.179   C20.788,15.375,20.189,15.269,19.585,15.306z M14.972,8.651c-3.955,0-7.173,3.218-7.173,7.173c0,0.054,0.003,0.107,0.004,0.16   c-0.101,0.059-0.202,0.12-0.284,0.179c-0.368,0.234-0.684,0.536-0.926,0.88c-0.101-0.017-0.209-0.014-0.311-0.023   c-0.054-0.395-0.091-0.795-0.091-1.196c0-4.841,3.938-8.779,8.779-8.779s8.778,3.938,8.778,8.779c0,0.204-0.02,0.404-0.034,0.605   c-0.359-0.026-0.723-0.016-1.094,0.074c-0.15-0.153-0.315-0.289-0.486-0.417c0.003-0.087,0.009-0.174,0.009-0.262   C22.145,11.868,18.927,8.651,14.972,8.651z M14.972,6.255c-5.276,0-9.569,4.292-9.569,9.569c0,0.398,0.041,0.794,0.09,1.187   c-0.386,0.052-0.78,0.188-1.218,0.426c-0.16,0.086-0.308,0.195-0.451,0.313c-0.109-0.634-0.18-1.276-0.18-1.926   c0-6.246,5.082-11.328,11.328-11.328c6.246,0,11.327,5.082,11.327,11.328c0,0.598-0.063,1.19-0.155,1.775   c-0.176-0.189-0.364-0.364-0.577-0.511c-0.344-0.237-0.703-0.394-1.069-0.509c0.02-0.25,0.042-0.5,0.042-0.755   C24.541,10.547,20.248,6.255,14.972,6.255z M12.664,26.784c-0.502,0.415-1.095,0.671-1.714,0.739   c-0.961,0.109-1.972-0.261-2.642-1.01c-0.072-0.086-0.213-0.101-0.324-0.104c-0.002-0.001-0.005-0.001-0.008-0.001   c-0.11,0-0.25,0.078-0.325,0.156c-0.414,0.388-0.853,0.611-1.383,0.702c-0.377,0.066-0.797,0.015-1.284-0.151   c-0.591-0.203-1.123-0.71-1.457-1.39c-0.073-0.147-0.23-0.231-0.392-0.219c-0.595,0.054-1.159-0.129-1.554-0.514   c-0.841-0.82-0.658-2.081-0.058-2.853c0.125-0.16,0.282-0.294,0.451-0.412c0.025-0.005,0.48-0.343,0.967-0.385   c0.21-0.018,0.358-0.216,0.34-0.426c-0.035-0.403,0.008-0.796,0.125-1.137c0.188-0.546,0.557-1.275,1.247-1.649   c0.439-0.238,0.807-0.352,1.161-0.357c0.307-0.01,0.589,0.025,0.875,0.094c0.171,0.042,0.349-0.035,0.437-0.189   c0.192-0.336,0.476-0.631,0.838-0.863c0.092-0.067,0.188-0.126,0.286-0.181c0.915-0.502,1.936-0.554,2.798-0.146   c0.388,0.184,0.744,0.457,1.031,0.789c0.102,0.119,0.31,0.149,0.459,0.104c0.508-0.154,1.01-0.143,1.501,0.009   c-0.004,0.002-0.008,0.004-0.013,0.006c-0.951,0.516-1.44,1.467-1.684,2.175c-0.123,0.359-0.187,0.756-0.187,1.166   c-0.66,0.169-1.251,0.548-1.658,1.069c-0.99,1.274-0.932,3.018,0.135,4.06c0.521,0.51,1.228,0.787,1.999,0.779   c0.023,0.041,0.053,0.074,0.078,0.114C12.694,26.769,12.677,26.772,12.664,26.784z M28.884,24.373   c-0.145,0.803-0.657,1.585-1.406,2.144c-1.022,0.764-2.558,0.824-3.736,0.151c-0.16-0.094-0.368-0.059-0.493,0.082   c-0.6,0.684-1.397,1.113-2.245,1.207c-1.012,0.106-2.078-0.276-2.714-0.987l-0.07-0.081c-0.073-0.085-0.179-0.134-0.291-0.137   c-0.1,0.014-0.219,0.043-0.296,0.125l-0.071,0.071c-0.436,0.408-0.898,0.643-1.457,0.738c-0.4,0.069-0.842,0.017-1.354-0.159   c-0.624-0.215-1.184-0.749-1.536-1.464c-0.072-0.147-0.228-0.234-0.392-0.219c-0.625,0.067-1.223-0.137-1.64-0.543   c-0.888-0.866-0.696-2.197-0.063-3.01c0.352-0.452,0.897-0.759,1.496-0.841c0.208-0.029,0.358-0.216,0.34-0.425   c-0.037-0.425,0.009-0.839,0.132-1.197c0.198-0.575,0.586-1.343,1.314-1.737c0.461-0.251,0.85-0.37,1.223-0.376   c0.325-0.015,0.616,0.027,0.922,0.1c0.171,0.043,0.349-0.035,0.436-0.188c0.202-0.357,0.502-0.667,0.881-0.91   c0.098-0.069,0.199-0.133,0.303-0.191c0.964-0.528,2.036-0.584,2.944-0.152c0.408,0.194,0.783,0.48,1.086,0.83   c0.102,0.117,0.309,0.15,0.461,0.103c0.833-0.255,1.684-0.107,2.46,0.429c0.8,0.553,1.28,1.515,1.429,2.861   c0.017,0.16,0.131,0.293,0.286,0.336c0.146,0.041,0.289,0.095,0.428,0.163c0.416,0.203,0.761,0.493,1.117,0.936   C28.859,22.633,29.043,23.486,28.884,24.373z"/></g></svg>