<?xml version="1.0" ?><svg id="Layer_1" style="enable-background:new 0 0 128 128;" version="1.1" viewBox="0 0 128 128" xml:space="preserve" xmlns="http://www.w3.org/2000/svg" xmlns:xlink="http://www.w3.org/1999/xlink" width="512" height="512"><style type="text/css">
	.st0{fill:#F0E402;}
	.st1{fill:#444B54;}
	.st2{fill:#EA551B;}
	.st3{fill:#FF392D;}
	.st4{fill:#FFFFFF;}
	.st5{fill:#57906F;}
	.st6{fill:#FF9217;}
	.st7{fill:#FFFAF0;}
	.st8{fill:#FF4F40;}
	.st9{fill:#F3E9CD;}
	.st10{fill:#F75342;}
	.st11{fill:none;stroke:#444B54;stroke-width:6;stroke-linecap:round;stroke-linejoin:round;stroke-miterlimit:10;}
	.st12{fill:#FFFAEE;}
	.st13{fill:#FFCE94;}
	.st14{fill:#BC9384;}
	.st15{fill:#F5999A;}
	.st16{fill:#C9C9C9;}
	.st17{fill:#95CDEE;}
	.st18{fill:#006E9F;}
	.st19{fill:#C92C28;}
	.st20{fill:#75FA61;}
</style><g><g><g><path class="st6" d="M70.5,41.5C71,21.7,54.5,3.2,45.7,4.8c-3.8,0.7-6.7,5.5-7.6,9.3c-2.2,9.7,7.7,18.6,5.2,21.2     c-1.8,1.9-7.3-2.9-11.7-0.2c-2.3,1.4-3.5,4.4-3.6,6.9c-0.1,6.8,8.8,10.6,7.6,13.3c-1.1,2.6-9.6-0.4-11.9,2.9     c-2.5,3.4,0.7,11.9,6.7,15.9c5.7,3.9,12.4,2.6,13.8,2.4C57.8,74,70.1,58,70.5,41.5z"/></g></g><g><g><path class="st9" d="M93,124H41.4V69.6c0-14.3,11.6-25.8,25.8-25.8h0C81.5,43.8,93,55.3,93,69.6c0,11.7,0,23.4,0,35     C93,119.5,93,112.1,93,124z"/></g></g><g><g><path class="st1" d="M93,127c-1.7,0-3-1.3-3-3V66.6c0-1.7,1.3-3,3-3s3,1.3,3,3V124C96,125.7,94.7,127,93,127z"/></g></g><g><g><path class="st4" d="M95.6,59.5c2.3,9.9-0.6,19-6.5,20.3c-5.8,1.4-12.4-5.6-14.7-15.4c-2.3-9.9,0.7-17.8,6.5-19.2     C86.8,43.9,93.3,49.6,95.6,59.5z"/></g></g><g><g><path class="st4" d="M78,64.7c3,8.2,1.4,16.2-3.4,18s-11.1-3.4-14.1-11.6s-1.3-15.2,3.6-17S75.1,56.5,78,64.7z"/></g></g><g><g><circle class="st1" cx="72.4" cy="65.3" r="3"/></g></g><g><g><circle class="st1" cx="81.8" cy="65.3" r="3"/></g></g><g><path class="st1" d="M98.5,58.8C97,52.2,93.6,46.7,89.2,44c-2.8-1.8-5.9-2.4-8.8-1.7c0,0,0,0,0,0c-4.3,1-7.5,4.6-8.9,9.7    c-2.8-1.4-5.7-1.7-8.4-0.7c-1.6,0.6-2.4,2.3-1.8,3.8s2.3,2.4,3.8,1.8c1.8-0.7,4.2,0.3,6.3,2.5c0,0,0,0,0,0    c0.5,0.6,1.3,1.1,2.2,1.1c0,0,0,0,0.1,0c1.6,0,3-1.3,3-2.9c0.1-5.1,2-8.7,5-9.3c0,0,0,0,0,0c0,0,0,0,0,0c1.7-0.4,3.3,0.3,4.3,0.9    c3,1.9,5.6,6,6.7,11.1c2,8.8-0.6,15.9-4.2,16.8c-1.6,0.4-2.6,2-2.2,3.6c0.3,1.4,1.6,2.3,2.9,2.3c0.2,0,0.5,0,0.7-0.1    C97.4,81,101.2,70.5,98.5,58.8z"/></g><g><g><path class="st1" d="M41.4,127c-1.7,0-3-1.3-3-3V69.6c0-16,13.1-28.9,29.1-28.8c0.1-12.3-6.9-23.9-13.6-29.5     c-3.5-3-6.2-3.7-7.6-3.5c-2.3,0.4-4.6,4-5.3,7c-1,4.6,1.4,9.2,3.3,13c1.9,3.6,3.7,7,1.1,9.6c-2.1,2.1-4.9,1.3-7.1,0.6     c-2.2-0.7-3.9-1.1-5.1-0.4c-1.4,0.8-2.1,2.9-2.1,4.4c0,2.6,2.2,4.9,4.2,6.9c2.1,2.1,4.4,4.5,3.2,7.5c-1.3,3.1-5,3.1-7.9,3     c-1.2,0-3.8,0-4.4,0.4c-0.2,0.3-0.4,1.2-0.1,2.5c0.5,2.7,2.6,6.8,6.1,9.1c1.4,0.9,1.7,2.8,0.8,4.2c-0.9,1.4-2.8,1.7-4.2,0.8     c-4.4-3-7.7-8.1-8.6-13.1c-0.5-2.9-0.1-5.3,1.2-7.1c2.1-3,6.1-2.9,9.3-2.9c0.2,0,0.5,0,0.7,0c-0.1-0.1-0.2-0.2-0.4-0.4     c-2.4-2.4-6-6.1-5.9-11.2c0-3.2,1.6-7.4,5-9.4c3.5-2.1,7.2-1.1,9.8-0.3c-0.3-0.6-0.6-1.1-0.8-1.7c-2.3-4.4-5.4-10.4-3.9-17.1     c1.1-5,4.9-10.6,10-11.6c3.7-0.7,8.2,1,12.7,4.8c8.1,6.8,16,20.3,15.7,34.9c0,0,0,0.1,0,0.1l-0.2,2.5c-0.1,0.8-0.4,1.6-1.1,2.1     c-0.6,0.5-1.5,0.8-2.3,0.7c-0.9-0.1-1.8-0.2-2.8-0.2c-12.6,0-22.8,10.2-22.8,22.8V124C44.4,125.7,43.1,127,41.4,127z"/></g></g><g><g><path class="st4" d="M63.2,34.6c-1.3,0-2.5-0.9-2.9-2.2c-1-3.6-2.7-7.2-4.9-10.5c-0.9-1.4-0.6-3.2,0.8-4.2     c1.4-0.9,3.2-0.6,4.2,0.8c2.5,3.8,4.5,8,5.7,12.2c0.5,1.6-0.5,3.3-2.1,3.7C63.8,34.6,63.5,34.6,63.2,34.6z"/></g></g><g><g><path class="st4" d="M50.4,15.3c-0.6,0-1.2-0.2-1.7-0.5c-0.3-0.2-0.5-0.3-0.7-0.5c-1.4-0.9-1.9-2.7-1-4.1c0.9-1.4,2.7-1.9,4.1-1     c0.3,0.2,0.7,0.4,1.1,0.7c1.4,0.9,1.7,2.8,0.8,4.2C52.3,14.9,51.4,15.3,50.4,15.3z"/></g></g><g><g><path class="st3" d="M104.2,74.3c-4.9-3.9-21.1-8.9-30.3-1.8c-11.3,8.7-9.7,31.2,1.1,39.5c6.3,4.8,16.3,4.9,23.3,1.2     c5.9-3.1,6.2-6.8,2.1-6.8c-0.4,0-7.3-0.2-7.3-0.2c-10.4-4.2-2.5-21.2,0-22.9c0,0,7.9,0,10,0C113.8,83.2,106.9,76.4,104.2,74.3z"/></g></g><g><g><path class="st1" d="M78.5,84.4c-3.4,0.8-5.3,2.4-5.3,6.5c0,5.5,6.8,10.1,9,11.7c3,2.1,7.3,3.1,11,3.5c0-0.5,0-1,0-1.5     c0-7.1,0-14.3,0-21.4C89.9,83.1,83.9,83.1,78.5,84.4z"/></g></g></g></svg>