<?xml version="1.0" standalone="no"?>
<!DOCTYPE svg PUBLIC "-//W3C//DTD SVG 20010904//EN"
 "http://www.w3.org/TR/2001/REC-SVG-20010904/DTD/svg10.dtd">
<svg version="1.0" xmlns="http://www.w3.org/2000/svg"
 width="1280" height="746" viewBox="0 0 1280.000000 746.000000"
 preserveAspectRatio="xMidYMid meet">
<metadata>
Created by potrace 1.15, written by Peter Selinger 2001-2017
</metadata>
<g transform="translate(0.000000,746.000000) scale(0.100000,-0.100000)"
fill="#3297D3" stroke="none">
<path d="M12195 7451 c-9 -16 -181 -133 -294 -201 -113 -68 -175 -96 -356
-161 -66 -24 -228 -97 -360 -162 -132 -66 -286 -141 -342 -168 -57 -26 -140
-72 -185 -102 -128 -83 -519 -379 -554 -419 -17 -19 -52 -69 -78 -111 l-48
-77 -130 0 -131 0 -146 87 c-229 135 -505 331 -590 418 -85 86 -147 130 -205
146 -62 17 -181 6 -252 -23 -135 -54 -428 -253 -526 -355 -52 -55 -58 -68 -93
-180 -3 -8 -29 -1 -82 23 -337 155 -687 306 -852 368 -259 97 -746 258 -896
295 -587 147 -1196 104 -1707 -120 -291 -127 -774 -452 -1148 -773 -169 -145
-389 -371 -472 -486 -153 -211 -285 -436 -428 -725 -187 -380 -261 -590 -330
-935 -56 -279 -125 -583 -170 -755 -28 -104 -71 -271 -96 -370 -135 -537 -196
-673 -374 -831 -122 -109 -185 -147 -328 -198 -109 -39 -188 -48 -327 -38
-168 13 -207 34 -415 226 -104 96 -156 131 -211 141 -68 13 -86 -45 -54 -169
25 -95 51 -134 239 -366 196 -241 187 -234 432 -379 129 -76 260 -127 455
-177 97 -24 114 -26 269 -21 249 8 373 42 655 180 213 105 270 138 390 228
119 89 226 196 300 300 118 167 247 339 254 339 8 0 38 -179 47 -285 4 -42 -1
-144 -11 -250 -20 -211 -17 -250 30 -410 28 -96 41 -125 64 -145 39 -33 51
-61 100 -225 24 -77 46 -150 51 -162 13 -33 49 -52 130 -69 40 -8 98 -26 130
-39 48 -20 91 -27 266 -40 184 -14 215 -19 256 -41 40 -20 62 -24 134 -24 78
0 89 -2 116 -25 17 -14 36 -24 42 -22 6 2 12 26 14 54 3 47 6 52 34 64 28 11
44 10 140 -15 173 -45 219 -19 167 98 -23 53 -18 83 14 92 26 6 102 -9 154
-31 20 -8 49 -15 66 -15 l30 0 -6 71 c-3 40 -13 81 -22 93 -67 91 -69 96 -53
112 14 14 19 14 53 0 57 -24 75 -21 75 13 0 28 -31 82 -74 131 -35 38 -69 91
-63 96 3 3 90 -2 193 -10 211 -18 208 -19 201 52 -3 23 -1 44 3 47 4 2 42 -13
85 -35 43 -22 85 -40 92 -40 7 0 19 10 27 23 18 26 8 87 -18 116 -20 22 -20
27 1 35 9 4 45 -4 79 -16 l63 -22 24 23 25 23 -34 60 c-38 67 -41 78 -19 78 8
0 15 5 15 10 0 17 -40 49 -135 108 -114 70 -243 169 -289 224 -39 46 -43 57
-75 228 -29 157 -28 180 15 346 l16 62 77 12 c140 22 300 68 396 114 74 35 95
41 91 28 -3 -9 -17 -73 -31 -142 -21 -100 -25 -141 -20 -205 19 -258 68 -410
196 -612 56 -89 67 -117 119 -293 46 -155 73 -223 127 -330 84 -163 133 -323
133 -429 0 -38 4 -81 10 -96 13 -33 91 -109 127 -123 129 -48 307 -95 397
-104 55 -6 134 -21 174 -34 93 -31 199 -33 233 -5 l24 20 -23 43 c-30 58 -29
78 4 78 53 0 150 -32 200 -66 49 -34 52 -35 85 -21 49 20 66 43 50 69 -18 29
-8 32 45 14 57 -19 118 -21 132 -3 8 9 5 24 -13 55 -26 46 -27 46 31 61 23 6
54 21 69 32 30 25 30 32 -1 156 -16 65 -25 80 -79 136 -39 41 -90 80 -146 111
-102 57 -129 81 -174 150 -66 103 -94 171 -101 242 -8 88 -31 138 -139 309
-143 227 -156 263 -174 500 -6 82 -5 118 4 140 20 48 127 142 200 177 59 27
73 30 122 24 31 -4 90 -18 132 -32 59 -20 87 -24 126 -20 139 16 165 18 189
12 14 -3 65 -38 113 -76 90 -73 144 -96 195 -86 16 3 67 29 113 57 46 28 90
49 98 46 11 -4 16 -33 19 -112 5 -105 6 -108 57 -210 29 -57 79 -135 111 -173
73 -88 80 -101 80 -156 0 -54 4 -65 92 -226 85 -157 91 -191 87 -480 -3 -156
0 -221 9 -237 16 -29 165 -126 222 -146 67 -23 476 -77 711 -94 l77 -5 -5 66
c-3 36 -3 66 1 66 4 0 34 -14 67 -31 58 -30 64 -32 127 -23 63 9 66 10 77 44
l12 35 64 -3 c170 -9 164 -10 164 23 0 30 1 30 68 39 37 4 67 13 67 19 0 34
-225 242 -345 319 -134 86 -155 134 -190 437 -18 162 -28 200 -115 461 -86
255 -134 454 -128 530 3 37 19 87 50 155 29 62 57 146 73 219 35 153 109 354
139 382 15 13 78 35 172 59 82 21 165 46 184 56 20 9 64 49 99 88 34 39 75 78
91 86 15 8 69 17 121 21 52 3 112 10 134 16 71 17 273 107 403 178 171 94 351
155 587 199 175 33 232 54 399 148 183 102 295 204 341 308 29 66 51 95 73 95
10 0 13 -9 10 -35 -2 -19 -3 -35 -1 -35 1 0 25 14 52 31 55 33 113 104 190
232 67 112 85 190 79 344 -5 131 -5 131 -95 271 -108 167 -223 265 -395 335
l-103 43 -49 97 c-52 106 -85 139 -255 256 l-74 51 -45 -92 c-52 -108 -103
-162 -218 -230 l-79 -48 -90 25 c-50 14 -125 37 -168 53 l-79 29 109 95 c59
52 185 146 278 208 94 62 312 210 485 329 300 206 322 223 458 359 161 162
179 188 156 221 -11 15 -26 21 -54 21 -32 0 -60 -13 -147 -71 -60 -40 -144
-89 -188 -110 -98 -46 -327 -123 -415 -139 -97 -18 -185 -45 -382 -115 -194
-70 -215 -80 -349 -160 -51 -30 -93 -54 -94 -53 -2 2 61 62 139 135 95 89 193
168 301 243 319 220 384 279 592 529 199 239 231 292 194 325 -20 18 -28 20
-36 7z"/>
</g>
</svg>
