<?xml version="1.0" standalone="no"?>
<!DOCTYPE svg PUBLIC "-//W3C//DTD SVG 20010904//EN"
 "http://www.w3.org/TR/2001/REC-SVG-20010904/DTD/svg10.dtd">
<svg version="1.0" xmlns="http://www.w3.org/2000/svg"
 width="1178" height="1280" viewBox="0 0 1178.000000 1280.000000"
 preserveAspectRatio="xMidYMid meet">
<metadata>
Created by potrace 1.15, written by Peter Selinger 2001-2017
</metadata>
<g transform="translate(0.000000,1280.000000) scale(0.100000,-0.100000)"
fill="#EA3124" stroke="none">
<path d="M10 12791 c0 -28 117 -92 218 -120 39 -11 90 -31 114 -45 24 -14 219
-197 433 -408 215 -211 901 -884 1525 -1496 l1135 -1113 167 -277 c306 -506
449 -831 558 -1275 110 -450 148 -812 185 -1767 9 -223 21 -420 26 -438 6 -19
25 -49 41 -68 l30 -34 -84 -39 c-151 -70 -243 -88 -281 -54 -18 17 -19 17 -12
-22 4 -22 16 -47 26 -57 10 -9 19 -20 19 -25 0 -11 -43 -53 -53 -53 -3 0 -19
25 -33 55 -15 30 -30 55 -34 55 -4 0 -19 -26 -33 -57 l-26 -58 22 -12 c12 -7
54 -12 93 -13 117 0 225 41 425 161 l104 63 140 -3 c98 -2 216 5 395 24 316
34 431 32 511 -8 70 -35 92 -66 97 -138 8 -111 -45 -229 -242 -537 -62 -97
-126 -199 -142 -227 -28 -48 -29 -49 -32 -22 -4 36 -29 35 -77 -3 -33 -26 -47
-30 -109 -32 -122 -3 -139 -1 -164 28 l-24 27 -30 -31 c-25 -24 -31 -40 -33
-79 -2 -46 -2 -46 4 -8 l6 40 28 -52 27 -53 -35 0 c-33 0 -35 -2 -35 -31 0
-29 2 -31 28 -26 28 6 131 23 497 82 173 28 218 33 255 24 702 -158 1082 -257
1460 -382 753 -249 1338 -569 1820 -995 69 -61 459 -445 867 -854 l742 -743
256 -315 c217 -267 299 -379 543 -737 194 -285 305 -459 343 -535 l55 -113 18
26 c39 61 45 138 21 267 -26 136 -66 248 -201 567 -171 404 -371 977 -495
1420 -150 533 -215 720 -553 1567 -233 586 -308 763 -396 939 l-52 102 36 69
c45 87 49 156 13 209 -37 55 -77 63 -242 49 -77 -7 -173 -13 -212 -13 l-73 1
-132 82 c-73 46 -204 121 -291 168 -86 46 -157 90 -157 97 0 8 8 125 17 262
20 295 22 862 4 1098 -19 258 -35 342 -102 520 -34 91 -31 234 10 436 35 173
51 311 41 348 -6 23 -10 19 -52 -45 -129 -194 -176 -357 -198 -674 -8 -125
-16 -170 -60 -330 -33 -122 -53 -214 -57 -270 -5 -80 -7 -87 -41 -122 -20 -21
-41 -38 -48 -38 -7 0 -14 -6 -17 -14 -3 -7 -36 -34 -74 -59 -126 -84 -243
-125 -383 -134 l-96 -6 -123 124 c-437 440 -702 839 -1196 1804 -71 138 -146
278 -167 313 -43 71 -46 92 -18 153 31 69 27 129 -12 180 -47 61 -75 78 -146
90 -39 7 -74 20 -90 34 l-26 22 -17 -21 -17 -21 -11 27 c-12 32 -85 114 -115
130 l-21 11 20 -24 c11 -13 2 -8 -19 11 -21 19 -51 51 -65 70 -43 56 -726 728
-836 822 -374 319 -1221 860 -2010 1283 -120 64 -258 143 -305 174 -129 87
-188 117 -545 279 -182 82 -403 186 -492 231 -165 82 -213 102 -135 55 93 -56
34 -34 -158 58 -135 65 -275 122 -383 158 -38 12 -66 24 -64 26 5 6 298 -91
337 -111 16 -8 33 -15 37 -15 23 2 -265 135 -457 212 -262 105 -462 165 -651
192 -119 18 -259 21 -259 7z m977 -277 c-3 -3 -12 -4 -19 -1 -8 3 -5 6 6 6 11
1 17 -2 13 -5z m7370 -6235 c56 -27 128 -108 177 -201 34 -62 42 -90 57 -193
10 -66 16 -122 14 -123 -5 -6 -146 92 -228 157 -118 96 -276 275 -303 345 -7
20 57 34 160 35 62 1 89 -4 123 -20z m497 -516 c23 -155 21 -170 -16 -140 -13
10 -17 43 -20 192 -5 196 -1 191 36 -52z m2332 -3960 c-4 -4 -36 73 -35 85 0
4 9 -13 20 -37 11 -24 18 -46 15 -48z m138 -430 c29 -104 32 -120 10 -81 -22
41 -50 140 -46 161 5 26 6 23 36 -80z"/>
</g>
</svg>
