<?xml version="1.0" standalone="no"?>
<!DOCTYPE svg PUBLIC "-//W3C//DTD SVG 20010904//EN"
 "http://www.w3.org/TR/2001/REC-SVG-20010904/DTD/svg10.dtd">
<svg version="1.0" xmlns="http://www.w3.org/2000/svg"
 width="1280" height="793" viewBox="0 0 1280.000000 793.000000"
 preserveAspectRatio="xMidYMid meet">
<metadata>
Created by potrace 1.15, written by Peter Selinger 2001-2017
</metadata>
<g transform="translate(0.000000,793.000000) scale(0.100000,-0.100000)"
fill="#D4BB5D" stroke="none">
<path d="M6005 7917 c-66 -30 -115 -116 -141 -246 -55 -271 -77 -347 -141
-486 -36 -77 -72 -153 -80 -168 l-14 -28 -88 113 c-119 152 -360 426 -454 515
-114 108 -178 133 -247 98 -57 -30 -91 -96 -192 -378 -102 -286 -129 -386
-152 -569 -16 -120 -29 -163 -52 -172 -29 -11 -721 13 -824 29 -174 27 -421
90 -695 178 -144 46 -169 52 -250 52 -106 0 -135 -15 -161 -82 -23 -60 -15
-185 18 -280 51 -143 116 -236 369 -525 64 -73 150 -183 192 -243 89 -131 209
-326 203 -332 -2 -2 -53 15 -112 38 -277 106 -385 134 -458 115 -37 -9 -64
-43 -71 -90 -7 -51 22 -168 69 -274 18 -42 52 -119 75 -170 45 -103 69 -190
101 -366 46 -254 110 -407 274 -653 52 -79 97 -147 101 -152 3 -6 -14 -15 -37
-21 -318 -81 -504 -149 -514 -186 -15 -56 70 -154 250 -291 113 -86 173 -137
198 -169 l18 -22 -76 24 c-127 40 -194 27 -213 -44 -14 -49 -13 -87 4 -211 8
-57 13 -106 11 -108 -1 -2 -65 27 -141 64 -207 100 -271 98 -327 -10 -39 -77
-12 -258 80 -544 16 -51 29 -93 27 -93 -1 0 -38 12 -81 26 -155 51 -348 159
-486 272 -130 106 -340 338 -438 485 -14 20 -28 37 -31 37 -10 0 10 -112 32
-175 25 -71 50 -118 132 -243 33 -51 58 -94 56 -97 -9 -9 -147 66 -201 110
-69 55 -162 170 -238 292 -171 276 -269 405 -353 465 l-30 22 6 -60 c18 -174
165 -450 419 -787 32 -43 58 -80 58 -83 0 -2 -39 22 -87 54 -333 224 -638 575
-893 1027 l-34 59 -8 -29 c-22 -75 17 -226 102 -396 84 -167 194 -321 482
-674 52 -64 -228 206 -325 313 -102 113 -156 192 -297 432 -126 215 -228 366
-292 434 l-49 51 6 -55 c11 -92 45 -239 77 -329 64 -183 232 -469 392 -670 33
-41 53 -72 45 -68 -8 3 -52 23 -99 43 -86 38 -182 56 -194 36 -15 -25 200
-255 364 -388 413 -334 1046 -588 1770 -708 429 -72 738 -55 1103 61 488 154
1079 519 1448 894 112 114 147 144 201 169 123 58 339 81 423 46 90 -38 153
-136 180 -282 19 -95 19 -177 0 -279 -8 -44 -19 -161 -25 -260 -27 -457 -43
-575 -115 -874 -25 -101 -45 -196 -45 -211 0 -15 26 -79 57 -141 50 -99 57
-121 54 -164 -11 -221 -2 -255 97 -357 146 -152 343 -231 457 -184 18 8 38 23
44 34 11 20 11 20 53 -3 57 -32 189 -75 228 -75 77 0 94 46 55 143 -7 17 -2
16 43 -7 28 -14 68 -28 90 -32 35 -5 44 -3 67 21 25 24 27 32 23 90 -5 87 -32
118 -194 227 -189 129 -200 156 -137 363 29 97 28 76 23 485 -2 121 2 235 8
260 l10 45 1 -37 c3 -108 142 -520 207 -615 50 -73 105 -98 259 -117 66 -8
165 -22 220 -30 106 -17 585 -23 585 -8 0 19 -99 117 -182 179 -51 38 -135
100 -185 138 -127 94 -143 119 -143 221 0 44 9 129 20 189 11 61 25 173 30
250 10 131 33 325 46 384 14 64 9 63 87 19 202 -115 357 -166 612 -204 99 -14
221 -36 271 -49 208 -53 249 -105 329 -417 19 -76 46 -166 59 -200 29 -78 33
-103 46 -253 13 -157 31 -216 80 -269 l39 -43 -34 -33 c-68 -66 -94 -164 -60
-229 65 -127 392 -242 688 -242 62 0 162 7 222 16 192 27 266 55 273 105 8 52
-296 296 -408 327 -31 8 -67 23 -80 33 l-23 17 23 31 c18 24 22 39 17 69 -4
21 -13 81 -22 133 -9 60 -15 162 -15 275 0 155 -3 190 -22 253 -25 87 -20 104
54 159 88 64 179 75 428 52 100 -10 129 -9 197 5 140 28 165 22 244 -61 58
-59 291 -414 332 -503 22 -50 49 -84 112 -145 l83 -80 5 -81 c6 -92 30 -150
74 -180 33 -22 70 -22 418 -7 280 13 315 23 420 113 28 23 30 31 30 85 0 96
-40 134 -215 211 -58 25 -119 55 -136 66 -49 34 -90 104 -132 229 -22 63 -63
160 -90 215 -28 55 -62 128 -76 162 -13 34 -40 88 -59 120 -103 171 -88 267
76 503 149 215 197 237 351 157 l81 -42 140 -6 140 -6 135 -58 c74 -32 173
-80 220 -107 135 -76 215 -110 263 -112 55 -2 77 15 77 59 0 19 3 34 6 34 3 0
20 -11 38 -25 18 -14 48 -30 66 -37 30 -10 35 -9 52 12 28 34 23 102 -17 219
-45 134 -92 230 -210 425 -114 190 -209 326 -320 461 -119 144 -159 179 -250
220 -78 35 -135 78 -135 99 0 29 -61 135 -94 164 -70 61 -123 36 -203 -99 -64
-106 -75 -106 -182 0 -87 87 -128 106 -161 76 -10 -9 -22 -30 -25 -47 l-7 -30
-23 49 c-55 121 -154 124 -210 9 l-27 -55 -22 41 c-28 54 -64 80 -110 80 l-36
0 0 105 0 105 -37 -7 c-21 -4 -91 -31 -155 -61 -64 -30 -119 -54 -122 -54 -3
0 -6 28 -6 63 0 118 -40 186 -102 173 -16 -3 -28 -4 -28 -3 0 1 14 99 31 217
34 237 43 436 21 507 -7 23 -26 54 -42 70 -17 15 -30 34 -30 40 0 15 -16 17
-25 3 -3 -5 -21 -10 -39 -10 -49 0 -175 -68 -305 -165 -116 -86 -131 -94 -131
-73 0 6 -42 111 -94 232 -52 122 -113 275 -136 342 -47 137 -70 181 -103 193
-36 13 -70 -5 -157 -87 -76 -70 -82 -74 -77 -47 13 68 29 351 24 419 -6 88
-16 109 -57 126 -63 26 -159 -7 -303 -103 -37 -25 -69 -42 -71 -39 -9 17 -60
185 -115 377 -140 492 -251 705 -368 705 -39 0 -123 -53 -180 -113 -65 -71
-151 -192 -247 -352 -76 -127 -71 -133 -81 105 -13 321 -59 497 -137 524 -22
8 -42 2 -112 -32 -97 -46 -300 -181 -374 -247 l-50 -45 -7 38 c-8 46 -73 169
-128 242 -22 30 -95 120 -162 200 -67 80 -159 197 -205 260 -168 232 -315 383
-441 450 -70 37 -148 48 -194 27z"/>
</g>
</svg>
