<?xml version="1.0" standalone="no"?>
<!DOCTYPE svg PUBLIC "-//W3C//DTD SVG 20010904//EN"
 "http://www.w3.org/TR/2001/REC-SVG-20010904/DTD/svg10.dtd">
<svg version="1.0" xmlns="http://www.w3.org/2000/svg"
 width="1280" height="834" viewBox="0 0 1280.000000 834.000000"
 preserveAspectRatio="xMidYMid meet">
<metadata>
Created by potrace 1.15, written by Peter Selinger 2001-2017
</metadata>
<g transform="translate(0.000000,834.000000) scale(0.100000,-0.100000)"
fill="#EA9B60" stroke="none">
<path d="M2780 8329 c-168 -22 -398 -100 -555 -190 -254 -144 -444 -339 -550
-561 -40 -84 -49 -97 -82 -110 -529 -219 -648 -263 -795 -294 -199 -42 -290
-94 -453 -259 -168 -169 -285 -356 -322 -514 -24 -103 -24 -427 1 -631 9 -79
19 -147 22 -149 4 -4 179 16 219 25 16 4 33 -10 73 -58 113 -135 181 -167 235
-110 22 23 67 109 105 205 9 22 18 27 44 27 18 0 42 3 54 6 17 4 29 -8 71 -73
28 -43 65 -97 82 -119 l31 -42 -31 2 c-45 2 -66 -33 -88 -139 l-18 -90 -74
-22 c-94 -29 -101 -29 -127 6 -75 102 -201 211 -243 211 -44 0 -91 -101 -124
-264 -9 -44 -18 -83 -20 -86 -3 -4 -25 -11 -50 -14 -25 -4 -45 -10 -45 -13 0
-11 51 -94 113 -183 138 -197 279 -339 387 -388 54 -25 57 -25 165 -14 1492
154 1812 200 2325 332 123 32 496 152 570 184 19 8 124 -192 307 -584 71 -152
144 -298 163 -325 l34 -49 0 -166 c1 -142 4 -170 20 -200 35 -65 130 -173 239
-269 l107 -95 -50 -51 c-39 -40 -62 -54 -103 -65 -150 -38 -126 -19 -392 -297
-134 -140 -242 -259 -240 -263 3 -4 -6 -32 -20 -61 -28 -64 -55 -161 -55 -203
0 -30 3 -28 76 52 75 82 94 95 94 68 0 -33 20 -23 61 31 l43 57 18 -65 c17
-56 18 -75 8 -151 -6 -48 -21 -124 -34 -170 -14 -46 -22 -85 -20 -87 8 -8 134
122 164 170 17 25 39 72 50 103 32 94 100 201 100 158 0 -21 -35 -124 -67
-200 -19 -46 -33 -85 -31 -87 14 -15 183 131 216 188 11 18 23 26 35 23 11 -3
19 3 22 17 3 12 23 101 46 197 22 96 44 192 50 213 l10 37 146 0 c84 0 188 7
244 16 l99 15 85 -53 c47 -29 85 -56 85 -60 0 -3 -14 -9 -30 -13 -23 -5 -92
-71 -275 -263 -135 -140 -244 -260 -242 -266 2 -6 -6 -32 -19 -57 -23 -46 -47
-132 -58 -204 l-5 -39 83 89 c76 82 84 88 90 67 11 -32 20 -28 61 28 20 28 40
50 44 50 13 0 31 -91 31 -159 0 -42 -10 -107 -26 -167 -43 -163 -45 -157 31
-84 80 78 124 142 156 230 26 75 77 162 89 155 14 -9 -29 -140 -97 -294 -10
-22 107 62 160 115 27 27 56 61 65 76 11 18 22 26 33 23 13 -5 21 14 42 107
15 62 39 167 55 233 l28 120 119 0 c110 1 126 -2 189 -28 38 -16 96 -39 130
-52 l61 -23 16 -113 c26 -185 85 -322 198 -457 l48 -58 12 -174 c22 -317 61
-523 149 -783 l49 -146 -51 -17 c-28 -9 -76 -29 -106 -45 l-56 -27 -94 21
c-132 29 -444 31 -570 3 -262 -57 -454 -154 -587 -300 -93 -102 -153 -234
-153 -337 l0 -38 288 -5 c158 -3 1180 -8 2271 -12 l1984 -6 -6 69 c-26 312
-327 597 -754 713 l-82 23 -7 75 c-33 357 123 632 426 753 146 58 221 97 341
177 389 261 615 676 569 1046 -6 49 -12 93 -13 98 -2 10 24 22 323 143 464
188 818 287 1160 327 169 19 925 16 1233 -5 131 -10 248 -17 260 -17 33 0 -54
74 -209 179 -225 150 -579 320 -949 454 -544 196 -897 261 -1573 288 -319 13
-750 3 -1114 -27 l-193 -15 -205 91 c-694 310 -1289 537 -1636 626 -308 78
-835 137 -1558 174 l-209 11 -52 -35 -52 -35 -11 25 c-17 35 52 323 117 493
158 411 223 769 176 963 -51 212 -226 459 -568 803 -183 184 -202 207 -243
287 -39 79 -54 96 -150 180 -340 299 -458 350 -892 388 -75 6 -136 18 -183 35
-139 50 -319 66 -489 44z m-526 -2527 c27 -7 22 -11 -82 -60 -61 -29 -115 -52
-120 -52 -5 0 -19 12 -33 26 -13 15 -41 40 -63 55 -42 31 -39 35 29 43 54 6
233 -2 269 -12z m-934 -16 c0 -3 -5 -17 -11 -33 -17 -43 -39 -191 -39 -260 0
-93 -8 -106 -79 -128 l-60 -18 -39 35 -40 36 25 11 c32 15 75 108 110 241 l28
105 35 6 c47 8 70 10 70 5z m536 -151 c-6 -31 -12 -36 -88 -65 -73 -29 -82
-30 -97 -16 -14 15 -13 16 10 16 34 0 110 51 145 98 24 30 29 34 32 18 2 -10
1 -33 -2 -51z m5580 -4465 c14 -63 48 -180 75 -260 49 -148 49 -159 7 -160
-20 0 -189 48 -197 56 -3 3 -7 67 -9 142 -4 153 9 232 56 336 26 59 27 59 34
31 4 -17 19 -82 34 -145z"/>
</g>
</svg>
