<?xml version="1.0" standalone="no"?>
<!DOCTYPE svg PUBLIC "-//W3C//DTD SVG 20010904//EN"
 "http://www.w3.org/TR/2001/REC-SVG-20010904/DTD/svg10.dtd">
<svg version="1.0" xmlns="http://www.w3.org/2000/svg"
 width="1280" height="718" viewBox="0 0 1280.000000 718.000000"
 preserveAspectRatio="xMidYMid meet">
<metadata>
Created by potrace 1.15, written by Peter Selinger 2001-2017
</metadata>
<g transform="translate(0.000000,718.000000) scale(0.100000,-0.100000)"
fill="#4CB46D" stroke="none">
<path d="M11370 7173 c-115 -41 -226 -117 -352 -245 -121 -123 -192 -227 -209
-305 -15 -75 -6 -421 13 -478 18 -55 18 -404 0 -505 -40 -222 -92 -354 -163
-413 -59 -48 -145 -87 -192 -87 -44 0 -121 37 -227 110 -239 164 -468 312
-547 353 -178 92 -412 151 -659 167 -382 24 -669 4 -869 -61 -33 -11 -118 -48
-190 -83 -122 -60 -366 -161 -500 -206 -87 -30 -248 -64 -515 -110 -594 -102
-840 -200 -1145 -456 -44 -37 -109 -90 -145 -119 l-65 -53 -295 -56 c-311 -59
-512 -92 -750 -125 -656 -91 -807 -118 -994 -177 -203 -65 -347 -103 -575
-155 -597 -133 -710 -168 -1417 -440 -670 -257 -896 -324 -1323 -389 -163 -24
-202 -35 -233 -60 -46 -39 -16 -42 352 -35 593 10 829 31 1390 125 508 85 776
110 1250 117 347 5 790 -7 972 -27 47 -6 128 -21 180 -35 102 -27 350 -74 550
-105 69 -11 180 -34 245 -50 237 -61 586 -192 749 -280 129 -70 233 -108 360
-129 143 -24 254 -58 389 -118 246 -110 332 -130 721 -164 72 -6 137 -15 144
-19 9 -6 -18 -39 -91 -112 -57 -57 -126 -136 -154 -176 -218 -315 -275 -387
-355 -447 -102 -78 -231 -143 -397 -199 -168 -57 -189 -68 -213 -116 -64 -126
-75 -409 -24 -625 22 -93 17 -145 -21 -263 -51 -153 -50 -206 6 -320 56 -113
125 -184 199 -206 30 -9 65 -16 78 -16 13 0 60 -16 104 -36 91 -41 201 -55
276 -35 35 10 42 16 42 37 0 14 -11 35 -26 49 -44 41 -31 51 114 81 55 11 82
83 45 117 -17 14 -43 20 -208 48 -111 19 -135 28 -146 56 -14 38 -38 212 -46
329 -6 103 -12 120 -32 86 -22 -37 -11 22 13 74 13 28 43 109 66 180 71 216
31 181 413 369 183 89 367 177 409 195 43 17 114 54 159 81 45 27 86 49 90 49
20 0 32 -53 40 -189 14 -210 25 -243 110 -338 101 -110 205 -301 270 -493 36
-107 62 -153 126 -221 63 -67 126 -105 231 -138 49 -15 113 -42 142 -60 81
-50 142 -61 325 -60 88 0 180 4 205 7 43 7 45 8 48 44 2 25 8 38 17 38 8 0 18
8 23 18 13 25 3 98 -16 115 -18 16 -253 97 -281 97 -51 0 -200 96 -299 192
-60 59 -82 94 -82 135 0 15 -10 48 -21 73 -37 79 -79 193 -95 255 -9 33 -29
83 -45 112 -94 165 -146 508 -137 913 l3 165 42 75 c50 90 59 124 78 300 18
177 27 203 85 261 54 54 256 158 433 223 163 61 162 61 297 -34 63 -44 151
-101 195 -125 101 -57 160 -109 149 -133 -4 -9 -16 -51 -27 -92 -25 -95 -20
-140 58 -490 66 -293 104 -408 214 -639 43 -91 84 -182 92 -201 21 -55 13
-156 -35 -455 -60 -373 -63 -398 -42 -430 19 -29 42 -32 74 -9 20 14 22 14 22
-4 0 -29 9 -32 50 -17 37 13 39 13 42 -7 5 -36 25 -31 78 18 58 54 95 124 109
209 40 230 73 527 65 585 -4 25 -19 97 -34 160 -71 288 -97 462 -115 760 -10
160 -22 278 -36 340 -42 191 -41 184 -24 196 21 16 209 44 292 44 55 0 80 -6
133 -31 95 -45 100 -51 100 -125 0 -40 9 -92 25 -141 13 -43 30 -114 36 -158
6 -44 12 -94 15 -111 2 -17 11 -39 19 -50 13 -18 15 -18 44 16 l29 35 6 -25
c3 -14 7 -63 9 -110 4 -88 23 -145 54 -157 8 -3 28 2 44 11 16 9 34 14 39 11
18 -11 58 22 87 72 27 46 28 53 27 183 0 153 -13 216 -90 453 -103 317 -146
356 -464 437 -148 37 -289 77 -299 86 -2 2 15 30 37 63 22 33 90 159 151 279
87 171 124 233 168 281 60 67 142 116 212 127 23 4 79 28 124 54 45 26 92 50
105 54 30 10 201 138 275 206 192 176 346 563 387 975 20 200 49 305 115 430
49 91 54 109 69 254 11 103 12 105 43 124 18 10 79 35 135 55 l103 36 185 -4
c102 -2 242 -5 311 -5 121 0 127 1 165 27 62 43 88 105 60 143 -13 18 -27 20
-163 20 -160 0 -166 2 -243 71 -14 12 -56 37 -94 55 -62 30 -87 52 -74 64 3 3
41 -1 84 -9 90 -15 179 -56 189 -85 6 -21 21 -29 75 -42 36 -8 179 17 268 48
76 26 66 70 -41 189 -47 52 -86 73 -172 93 -55 13 -174 67 -248 112 -98 60
-246 108 -402 128 -44 6 -136 18 -205 26 -69 8 -151 24 -182 35 -56 20 -98 24
-128 13z"/>
</g>
</svg>
