<svg width="1024" height="1024" viewBox="0 0 1024 1024" fill="none" xmlns="http://www.w3.org/2000/svg">
<g filter="url(#filter0_d)">
<path fill-rule="evenodd" clip-rule="evenodd" d="M928 362.627C928 352.845 928.004 343.062 927.944 333.279C927.895 325.038 927.8 316.799 927.576 308.562C927.092 290.609 926.033 272.502 922.84 254.749C919.602 236.741 914.314 219.98 905.981 203.617C897.789 187.534 887.088 172.817 874.32 160.058C861.555 147.299 846.834 136.605 830.746 128.418C814.366 120.083 797.587 114.797 779.558 111.56C761.803 108.372 743.691 107.315 725.738 106.83C717.495 106.607 709.253 106.513 701.008 106.462C691.22 106.402 681.432 106.407 671.644 106.407L557.997 106H472.997L361.361 106.407C351.554 106.407 341.747 106.402 331.94 106.462C323.678 106.513 315.42 106.607 307.161 106.83C289.167 107.315 271.014 108.373 253.217 111.565C235.164 114.801 218.36 120.085 201.958 128.414C185.835 136.602 171.083 147.297 158.291 160.058C145.501 172.816 134.78 187.53 126.573 203.61C118.217 219.981 112.919 236.752 109.673 254.77C106.477 272.516 105.418 290.617 104.931 308.562C104.709 316.8 104.613 325.039 104.563 333.279C104.503 343.063 104 355.216 104 364.999L104.003 475.089L104 560.998L104.508 673.427C104.508 683.223 104.504 693.019 104.563 702.815C104.613 711.067 104.709 719.317 104.932 727.566C105.418 745.542 106.479 763.675 109.678 781.452C112.923 799.484 118.22 816.269 126.569 832.653C134.777 848.759 145.5 863.495 158.291 876.272C171.082 889.049 185.83 899.757 201.95 907.956C218.362 916.302 235.174 921.595 253.238 924.836C271.027 928.029 289.174 929.088 307.161 929.573C315.42 929.796 323.679 929.891 331.941 929.941C341.748 930.001 351.554 929.997 361.361 929.997L474.006 930H559.217L671.644 929.996C681.432 929.996 691.22 930.001 701.008 929.941C709.253 929.891 717.495 929.796 725.738 929.573C743.698 929.087 761.816 928.027 779.579 924.832C797.597 921.591 814.368 916.3 830.739 907.959C846.831 899.761 861.554 889.051 874.32 876.272C887.086 863.497 897.786 848.763 905.978 832.66C914.316 816.268 919.604 799.475 922.844 781.431C926.034 763.661 927.092 745.535 927.577 727.566C927.8 719.316 927.895 711.066 927.944 702.815C928.005 693.019 928 683.223 928 673.427C928 673.427 927.994 562.983 927.994 560.998V474.999C927.994 473.533 928 362.627 928 362.627Z" fill="url(#paint0_linear)"/>
</g>
<mask id="mask0" mask-type="alpha" maskUnits="userSpaceOnUse" x="104" y="106" width="824" height="824">
<path fill-rule="evenodd" clip-rule="evenodd" d="M928 362.627C928 352.845 928.004 343.062 927.944 333.279C927.895 325.038 927.8 316.799 927.576 308.562C927.092 290.609 926.033 272.502 922.84 254.749C919.602 236.741 914.314 219.98 905.981 203.617C897.789 187.534 887.088 172.817 874.32 160.058C861.555 147.299 846.834 136.605 830.746 128.418C814.366 120.083 797.587 114.797 779.558 111.56C761.803 108.372 743.691 107.315 725.738 106.83C717.495 106.607 709.253 106.513 701.008 106.462C691.22 106.402 681.432 106.407 671.644 106.407L557.997 106H472.997L361.361 106.407C351.554 106.407 341.747 106.402 331.94 106.462C323.678 106.513 315.42 106.607 307.161 106.83C289.167 107.315 271.014 108.373 253.217 111.565C235.164 114.801 218.36 120.085 201.958 128.414C185.835 136.602 171.083 147.297 158.291 160.058C145.501 172.816 134.78 187.53 126.573 203.61C118.217 219.981 112.919 236.752 109.673 254.77C106.477 272.516 105.418 290.617 104.931 308.562C104.709 316.8 104.613 325.039 104.563 333.279C104.503 343.063 104 355.216 104 364.999L104.003 475.089L104 560.998L104.508 673.427C104.508 683.223 104.504 693.019 104.563 702.815C104.613 711.067 104.709 719.317 104.932 727.566C105.418 745.542 106.479 763.675 109.678 781.452C112.923 799.484 118.22 816.269 126.569 832.653C134.777 848.759 145.5 863.495 158.291 876.272C171.082 889.049 185.83 899.757 201.95 907.956C218.362 916.302 235.174 921.595 253.238 924.836C271.027 928.029 289.174 929.088 307.161 929.573C315.42 929.796 323.679 929.891 331.941 929.941C341.748 930.001 351.554 929.997 361.361 929.997L474.006 930H559.217L671.644 929.996C681.432 929.996 691.22 930.001 701.008 929.941C709.253 929.891 717.495 929.796 725.738 929.573C743.698 929.087 761.816 928.027 779.579 924.832C797.597 921.591 814.368 916.3 830.739 907.959C846.831 899.761 861.554 889.051 874.32 876.272C887.086 863.497 897.786 848.763 905.978 832.66C914.316 816.268 919.604 799.475 922.844 781.431C926.034 763.661 927.092 745.535 927.577 727.566C927.8 719.316 927.895 711.066 927.944 702.815C928.005 693.019 928 683.223 928 673.427C928 673.427 927.994 562.983 927.994 560.998V474.999C927.994 473.533 928 362.627 928 362.627Z" fill="white"/>
</mask>
<g mask="url(#mask0)">
<rect x="46" y="44" width="914" height="914" fill="url(#paint1_linear)"/>
<g filter="url(#filter1_b)">
<rect x="104" y="106" width="824" height="824" rx="126" fill="black" fill-opacity="0.01"/>
</g>
</g>
<path d="M268.906 468.065C269.725 451.549 270.545 435.009 271.364 418.493C273.475 376.023 298.609 356.378 340.259 365.716C360.948 370.361 381.189 377.091 401.703 382.505C443.031 393.408 480.458 366.735 484.854 323.917C487.388 299.28 480.781 277.549 464.067 259.642C401.753 193.007 313.958 189.753 244.467 242.58C215.856 264.336 202.842 297.343 191.144 330.251C160.05 417.648 169.189 503.829 199.613 589.19C212.627 625.674 228.249 660.916 253.234 691.142C257.754 696.606 262.026 702.914 267.838 706.49C288.824 719.355 287.309 738.901 284.453 758.77C282.963 769.251 279.486 779.434 277.549 789.865C275.189 802.655 280.28 811.969 292.326 815.818C304.371 819.693 316.789 821.282 329.58 818.972C340.458 816.986 345.823 810.528 347.561 800.023C349.697 787.108 349.101 774.094 349.771 761.129C350.144 753.977 351.634 746.675 360.948 748.14C369.988 749.556 367.902 756.783 366.834 763.166C365.17 773.249 362.537 783.159 362.81 793.54C363.108 805.188 368.175 813.831 379.376 816.663C414.668 825.628 434.835 814.651 434.586 779.682C434.537 773.175 432.426 766.171 437.095 760.235C443.453 752.164 486.642 752.636 492.802 760.906C497.819 767.637 496.055 775.336 494.963 782.637C490.517 812.739 495.335 818.6 525.436 818.799C556.655 818.997 565.497 810.553 566.614 779.334C566.838 773.423 566.813 767.512 566.689 761.601C566.614 757.454 567.657 754.697 572.525 754.871C577.294 755.045 577.12 758.373 576.871 761.552C576.3 768.605 575.605 775.659 574.81 782.712C572.351 804.866 581.665 817.557 601.608 819.121C628.058 821.183 640.178 811.397 640.7 787.331C640.849 780.253 640.476 773.15 640.402 766.047C640.129 742.801 646.909 732.369 669.51 726.781C700.555 719.082 728.545 704.975 755.517 688.608C789.989 667.697 819.966 641.991 839.785 605.979C844.926 596.616 848.999 586.831 851.781 576.524C852.65 573.345 855.63 569.247 850.986 567.285C847.36 565.745 845.919 570.166 844.082 572.426C823.195 598.454 798.955 620.831 770.791 638.763C754.424 649.194 737.138 657.415 717.766 660.991C687.64 666.554 659.923 654.211 644.872 627.289C634.888 609.431 625.997 590.904 615.69 573.245C573.767 501.519 505.269 478.844 428.427 510.808C399.642 522.779 374.235 539.543 353.273 562.864C345.897 571.06 338.546 579.38 329.456 585.763C311.623 598.28 302.086 596.417 290.885 577.89C280.355 560.48 274.096 541.356 271.811 521.239C269.899 503.581 268.459 485.873 268.906 468.065Z" fill="#EA9B60"/>
<path d="M405.156 299.702C410.793 298.336 414.767 295.132 414.171 289.197C413.6 283.484 409.651 279.983 403.69 280.554C398.326 281.05 395.047 284.528 395.37 290.066C395.718 295.902 399.443 299.007 405.156 299.702Z" fill="#353537"/>
<defs>
<filter id="filter0_d" x="94" y="106" width="844" height="844" filterUnits="userSpaceOnUse" color-interpolation-filters="sRGB">
<feFlood flood-opacity="0" result="BackgroundImageFix"/>
<feColorMatrix in="SourceAlpha" type="matrix" values="0 0 0 0 0 0 0 0 0 0 0 0 0 0 0 0 0 0 127 0"/>
<feOffset dy="10"/>
<feGaussianBlur stdDeviation="5"/>
<feColorMatrix type="matrix" values="0 0 0 0 0 0 0 0 0 0 0 0 0 0 0 0 0 0 0.3 0"/>
<feBlend mode="normal" in2="BackgroundImageFix" result="effect1_dropShadow"/>
<feBlend mode="normal" in="SourceGraphic" in2="effect1_dropShadow" result="shape"/>
</filter>
<filter id="filter1_b" x="93.1269" y="95.1269" width="845.746" height="845.746" filterUnits="userSpaceOnUse" color-interpolation-filters="sRGB">
<feFlood flood-opacity="0" result="BackgroundImageFix"/>
<feGaussianBlur in="BackgroundImage" stdDeviation="5.43656"/>
<feComposite in2="SourceAlpha" operator="in" result="effect1_backgroundBlur"/>
<feBlend mode="normal" in="SourceGraphic" in2="effect1_backgroundBlur" result="shape"/>
</filter>
<linearGradient id="paint0_linear" x1="-177.14" y1="106" x2="-177.14" y2="1492.28" gradientUnits="userSpaceOnUse">
<stop stop-color="white"/>
<stop offset="0.489516" stop-color="#EFEFEF"/>
<stop offset="1" stop-color="#C0C0C0"/>
</linearGradient>
<linearGradient id="paint1_linear" x1="932.377" y1="1000.83" x2="932.377" y2="142.072" gradientUnits="userSpaceOnUse">
<stop stop-color="#F6F3F3"/>
<stop offset="1" stop-color="white"/>
</linearGradient>
</defs>
</svg>
