<svg width="1024" height="1024" viewBox="0 0 1024 1024" fill="none" xmlns="http://www.w3.org/2000/svg">
<g filter="url(#filter0_d)">
<path fill-rule="evenodd" clip-rule="evenodd" d="M928 362.627C928 352.845 928.004 343.062 927.944 333.279C927.895 325.038 927.8 316.799 927.576 308.562C927.092 290.609 926.033 272.502 922.84 254.749C919.602 236.741 914.314 219.98 905.981 203.617C897.789 187.534 887.088 172.817 874.32 160.058C861.555 147.299 846.834 136.605 830.746 128.418C814.366 120.083 797.587 114.797 779.558 111.56C761.803 108.372 743.691 107.315 725.738 106.83C717.495 106.607 709.253 106.513 701.008 106.462C691.22 106.402 681.432 106.407 671.644 106.407L557.997 106H472.997L361.361 106.407C351.554 106.407 341.747 106.402 331.94 106.462C323.678 106.513 315.42 106.607 307.161 106.83C289.167 107.315 271.014 108.373 253.217 111.565C235.164 114.801 218.36 120.085 201.958 128.414C185.835 136.602 171.083 147.297 158.291 160.058C145.501 172.816 134.78 187.53 126.573 203.61C118.217 219.981 112.919 236.752 109.673 254.77C106.477 272.516 105.418 290.617 104.931 308.562C104.709 316.8 104.613 325.039 104.563 333.279C104.503 343.063 104 355.216 104 364.999L104.003 475.089L104 560.998L104.508 673.427C104.508 683.223 104.504 693.019 104.563 702.815C104.613 711.067 104.709 719.317 104.932 727.566C105.418 745.542 106.479 763.675 109.678 781.452C112.923 799.484 118.22 816.269 126.569 832.653C134.777 848.759 145.5 863.495 158.291 876.272C171.082 889.049 185.83 899.757 201.95 907.956C218.362 916.302 235.174 921.595 253.238 924.836C271.027 928.029 289.174 929.088 307.161 929.573C315.42 929.796 323.679 929.891 331.941 929.941C341.748 930.001 351.554 929.997 361.361 929.997L474.006 930H559.217L671.644 929.996C681.432 929.996 691.22 930.001 701.008 929.941C709.253 929.891 717.495 929.796 725.738 929.573C743.698 929.087 761.816 928.027 779.579 924.832C797.597 921.591 814.368 916.3 830.739 907.959C846.831 899.761 861.554 889.051 874.32 876.272C887.086 863.497 897.786 848.763 905.978 832.66C914.316 816.268 919.604 799.475 922.844 781.431C926.034 763.661 927.092 745.535 927.577 727.566C927.8 719.316 927.895 711.066 927.944 702.815C928.005 693.019 928 683.223 928 673.427C928 673.427 927.994 562.983 927.994 560.998V474.999C927.994 473.533 928 362.627 928 362.627Z" fill="url(#paint0_linear)"/>
</g>
<mask id="mask0" mask-type="alpha" maskUnits="userSpaceOnUse" x="104" y="106" width="824" height="824">
<path fill-rule="evenodd" clip-rule="evenodd" d="M928 362.627C928 352.845 928.004 343.062 927.944 333.279C927.895 325.038 927.8 316.799 927.576 308.562C927.092 290.609 926.033 272.502 922.84 254.749C919.602 236.741 914.314 219.98 905.981 203.617C897.789 187.534 887.088 172.817 874.32 160.058C861.555 147.299 846.834 136.605 830.746 128.418C814.366 120.083 797.587 114.797 779.558 111.56C761.803 108.372 743.691 107.315 725.738 106.83C717.495 106.607 709.253 106.513 701.008 106.462C691.22 106.402 681.432 106.407 671.644 106.407L557.997 106H472.997L361.361 106.407C351.554 106.407 341.747 106.402 331.94 106.462C323.678 106.513 315.42 106.607 307.161 106.83C289.167 107.315 271.014 108.373 253.217 111.565C235.164 114.801 218.36 120.085 201.958 128.414C185.835 136.602 171.083 147.297 158.291 160.058C145.501 172.816 134.78 187.53 126.573 203.61C118.217 219.981 112.919 236.752 109.673 254.77C106.477 272.516 105.418 290.617 104.931 308.562C104.709 316.8 104.613 325.039 104.563 333.279C104.503 343.063 104 355.216 104 364.999L104.003 475.089L104 560.998L104.508 673.427C104.508 683.223 104.504 693.019 104.563 702.815C104.613 711.067 104.709 719.317 104.932 727.566C105.418 745.542 106.479 763.675 109.678 781.452C112.923 799.484 118.22 816.269 126.569 832.653C134.777 848.759 145.5 863.495 158.291 876.272C171.082 889.049 185.83 899.757 201.95 907.956C218.362 916.302 235.174 921.595 253.238 924.836C271.027 928.029 289.174 929.088 307.161 929.573C315.42 929.796 323.679 929.891 331.941 929.941C341.748 930.001 351.554 929.997 361.361 929.997L474.006 930H559.217L671.644 929.996C681.432 929.996 691.22 930.001 701.008 929.941C709.253 929.891 717.495 929.796 725.738 929.573C743.698 929.087 761.816 928.027 779.579 924.832C797.597 921.591 814.368 916.3 830.739 907.959C846.831 899.761 861.554 889.051 874.32 876.272C887.086 863.497 897.786 848.763 905.978 832.66C914.316 816.268 919.604 799.475 922.844 781.431C926.034 763.661 927.092 745.535 927.577 727.566C927.8 719.316 927.895 711.066 927.944 702.815C928.005 693.019 928 683.223 928 673.427C928 673.427 927.994 562.983 927.994 560.998V474.999C927.994 473.533 928 362.627 928 362.627Z" fill="white"/>
</mask>
<g mask="url(#mask0)">
<rect x="46" y="44" width="914" height="914" fill="url(#paint1_linear)"/>
<g filter="url(#filter1_b)">
<rect x="104" y="106" width="824" height="824" rx="126" fill="black" fill-opacity="0.01"/>
</g>
</g>
<path d="M292.906 474.065C293.725 457.549 294.545 441.009 295.364 424.493C297.475 382.023 322.609 362.378 364.259 371.716C384.948 376.361 405.189 383.091 425.703 388.505C467.031 399.408 504.458 372.735 508.854 329.917C511.388 305.28 504.781 283.549 488.067 265.642C425.753 199.007 337.958 195.753 268.467 248.58C239.856 270.336 226.842 303.343 215.144 336.251C184.05 423.648 193.189 509.829 223.613 595.19C236.627 631.674 252.249 666.916 277.234 697.142C281.754 702.606 286.026 708.914 291.838 712.49C312.824 725.355 311.309 744.901 308.453 764.77C306.963 775.251 303.486 785.434 301.549 795.865C299.189 808.655 304.281 817.969 316.326 821.818C328.371 825.693 340.789 827.282 353.58 824.972C364.458 822.986 369.823 816.528 371.561 806.023C373.697 793.108 373.101 780.094 373.771 767.129C374.144 759.977 375.634 752.675 384.948 754.14C393.988 755.556 391.902 762.783 390.834 769.166C389.17 779.249 386.537 789.159 386.81 799.54C387.108 811.188 392.175 819.831 403.376 822.663C438.668 831.628 458.835 820.651 458.586 785.682C458.537 779.175 456.426 772.171 461.095 766.235C467.453 758.164 510.642 758.636 516.802 766.906C521.819 773.636 520.055 781.336 518.963 788.637C514.517 818.739 519.335 824.6 549.436 824.799C580.655 824.997 589.497 816.553 590.614 785.334C590.838 779.423 590.813 773.512 590.689 767.601C590.614 763.454 591.657 760.697 596.525 760.871C601.294 761.045 601.12 764.373 600.871 767.552C600.3 774.605 599.605 781.659 598.81 788.712C596.351 810.866 605.665 823.557 625.608 825.121C652.058 827.183 664.178 817.397 664.7 793.331C664.849 786.253 664.476 779.15 664.402 772.047C664.129 748.801 670.909 738.369 693.51 732.781C724.555 725.082 752.545 710.975 779.517 694.608C813.989 673.697 843.966 647.991 863.785 611.979C868.926 602.616 872.999 592.831 875.781 582.524C876.65 579.345 879.63 575.247 874.986 573.285C871.36 571.745 869.919 576.166 868.082 578.426C847.195 604.454 822.955 626.831 794.791 644.763C778.424 655.194 761.138 663.415 741.766 666.991C711.64 672.554 683.923 660.211 668.872 633.289C658.888 615.431 649.997 596.904 639.69 579.245C597.767 507.519 529.269 484.844 452.427 516.808C423.642 528.779 398.235 545.543 377.273 568.864C369.897 577.06 362.546 585.38 353.456 591.763C335.623 604.28 326.086 602.417 314.885 583.89C304.355 566.48 298.096 547.356 295.811 527.239C293.899 509.581 292.459 491.873 292.906 474.065Z" fill="#EA9B60"/>
<path d="M429.156 305.702C434.793 304.336 438.767 301.132 438.171 295.197C437.6 289.484 433.651 285.983 427.69 286.554C422.326 287.05 419.047 290.528 419.37 296.066C419.718 301.902 423.443 305.007 429.156 305.702Z" fill="#353537"/>
<defs>
<filter id="filter0_d" x="94" y="106" width="844" height="844" filterUnits="userSpaceOnUse" color-interpolation-filters="sRGB">
<feFlood flood-opacity="0" result="BackgroundImageFix"/>
<feColorMatrix in="SourceAlpha" type="matrix" values="0 0 0 0 0 0 0 0 0 0 0 0 0 0 0 0 0 0 127 0"/>
<feOffset dy="10"/>
<feGaussianBlur stdDeviation="5"/>
<feColorMatrix type="matrix" values="0 0 0 0 0 0 0 0 0 0 0 0 0 0 0 0 0 0 0.3 0"/>
<feBlend mode="normal" in2="BackgroundImageFix" result="effect1_dropShadow"/>
<feBlend mode="normal" in="SourceGraphic" in2="effect1_dropShadow" result="shape"/>
</filter>
<filter id="filter1_b" x="93.1269" y="95.1269" width="845.746" height="845.746" filterUnits="userSpaceOnUse" color-interpolation-filters="sRGB">
<feFlood flood-opacity="0" result="BackgroundImageFix"/>
<feGaussianBlur in="BackgroundImage" stdDeviation="5.43656"/>
<feComposite in2="SourceAlpha" operator="in" result="effect1_backgroundBlur"/>
<feBlend mode="normal" in="SourceGraphic" in2="effect1_backgroundBlur" result="shape"/>
</filter>
<linearGradient id="paint0_linear" x1="-177.14" y1="106" x2="-177.14" y2="1492.28" gradientUnits="userSpaceOnUse">
<stop stop-color="white"/>
<stop offset="0.489516" stop-color="#EFEFEF"/>
<stop offset="1" stop-color="#C0C0C0"/>
</linearGradient>
<linearGradient id="paint1_linear" x1="932.377" y1="1000.83" x2="932.377" y2="142.072" gradientUnits="userSpaceOnUse">
<stop stop-color="#F6F3F3"/>
<stop offset="1" stop-color="white"/>
</linearGradient>
</defs>
</svg>
